<svg height="511pt" viewBox="-48 1 511 511.99975" width="511pt" xmlns="http://www.w3.org/2000/svg"><path d="m223.300781 176.734375v-17.136719c0-8.28125-6.71875-15-15-15-8.285156 0-15 6.71875-15 15v17.136719h-33.199219c-8.285156 0-15 6.714844-15 15 0 8.28125 6.714844 15 15 15h1.0625v98.53125h-1.0625c-8.285156 0-15 6.714844-15 15s6.714844 15 15 15h33.199219v17.132813c0 8.285156 6.714844 15 15 15 8.28125 0 15-6.714844 15-15v-17.132813h1.066407c12.597656 0 24.4375-4.90625 33.324218-13.808594 8.90625-8.898437 13.808594-20.734375 13.808594-33.324219 0-12.40625-4.816406-23.710937-12.683594-32.132812 7.863282-8.425781 12.683594-19.730469 12.683594-32.136719 0-12.585937-4.902344-24.421875-13.800781-33.316406-8.894531-8.90625-20.734375-13.8125-33.332031-13.8125zm13.175781 123.515625c-3.230468 3.234375-7.53125 5.015625-12.109374 5.015625h-33.199219v-34.320313c.351562.023438.707031.054688 1.066406.054688h32.132813c9.445312 0 17.132812 7.6875 17.132812 17.132812 0 4.574219-1.78125 8.875-5.023438 12.117188zm5.023438-76.382812c0 9.445312-7.6875 17.132812-17.132812 17.132812h-32.132813c-.363281 0-.714844.027344-1.070313.054688v-34.320313h33.203126c4.578124 0 8.878906 1.78125 12.113281 5.019531 3.238281 3.238282 5.019531 7.539063 5.019531 12.113282zm0 0"/><path d="m405.84375 65.035156-192.800781-64.265625c-3.078125-1.027343-6.40625-1.027343-9.484375 0l-192.800782 64.265625c-6.125 2.042969-10.257812 7.773438-10.257812 14.230469v143.636719c0 60.542968 17.75 119.167968 51.332031 169.542968 33.582031 50.371094 80.871094 89.304688 136.761719 112.59375l13.933594 5.804688c1.847656.773438 3.808594 1.15625 5.773437 1.15625 1.960938 0 3.925781-.386719 5.773438-1.15625l13.9375-5.804688c55.882812-23.289062 103.171875-62.222656 136.753906-112.59375 33.582031-50.375 51.335937-109 51.335937-169.542968v-143.636719c0-6.457031-4.132812-12.1875-10.257812-14.230469zm-19.742188 157.867188c0 54.597656-16.011718 107.472656-46.296874 152.898437-28.90625 43.363281-69.085938 77.316407-116.503907 98.578125v-57.710937c0-8.285157-6.71875-15-15-15-8.285156 0-15 6.714843-15 15v57.710937c-47.425781-21.261718-87.597656-55.214844-116.507812-98.574218-30.285157-45.429688-46.292969-98.304688-46.292969-152.902344v-132.824219l162.800781-54.265625v59.519531c0 8.285157 6.714844 15 15 15 8.28125 0 15-6.714843 15-15v-59.519531l162.800781 54.265625zm0 0"/></svg>